<svg fill="none" xmlns="http://www.w3.org/2000/svg" viewBox="0 0 48 48"><path d="M46.5 25.412a13.6 13.6 0 0 0-13.6-13.6h-5.422a13.6 13.6 0 1 0 0 27.2h2.11l9.142 6.122v-7.48a13.57 13.57 0 0 0 7.77-12.242Z" stroke="#0065F7" stroke-width="3" stroke-linecap="round" stroke-linejoin="round"/><path d="m8.418 26.314-1.77.968v-7.3a8.988 8.988 0 0 1 3.86-17.114h5.146a9 9 0 0 1 7.046 3.4M27.286 21.2a3.157 3.157 0 0 1 5.388-2.232 3.156 3.156 0 0 1-2.232 5.388v2.154" stroke="#0065F7" stroke-width="3" stroke-linecap="round" stroke-linejoin="round"/><path d="M30.218 32.204a.75.75 0 0 1 0-1.5M30.218 32.204a.75.75 0 0 0 0-1.5" stroke="#0065F7" stroke-width="3"/></svg>
